<svg width="42" height="38" viewBox="0 0 42 38" fill="none" xmlns="http://www.w3.org/2000/svg">
<g id="Arrow 6" clip-path="url(#clip0_2_238)">
<path id="Arrow 03" d="M0.585933 27.2035C0.135796 25.5533 0.858113 24.2828 1.67551 23.1988C2.83254 21.7059 4.16196 20.3208 5.58646 19.1221C12.2933 13.772 20.0411 11.7678 28.5142 12.6442C30.6677 12.8747 32.8237 13.4172 35.2129 13.8797C34.7425 11.6523 32.9513 9.98288 32.3402 7.70995C33.3542 7.77893 33.8118 8.44588 34.206 8.98856C35.8147 11.2214 37.4082 13.5011 38.9395 15.8127C39.6659 16.9298 39.562 17.5705 38.4442 18.1423C36.1312 19.3646 33.6711 19.761 31.126 19.3C31.0322 19.2696 30.9371 19.0832 30.7634 18.8194C31.9331 16.9676 34.3604 18.2724 35.861 16.8389C32.8683 15.0398 29.5905 14.6008 26.3154 14.474C22.8843 14.3486 19.5028 14.5504 16.2214 15.5628C13.0021 16.5435 10.1467 18.1607 7.35595 20.0582C4.5335 21.8936 2.35499 24.3007 0.585933 27.2035Z" fill="black"/>
</g>
<defs>
<clipPath id="clip0_2_238">
<rect width="28.3944" height="34.4457" fill="white" transform="translate(-0.000915527 27.0134) rotate(-72.0565)"/>
</clipPath>
</defs>
</svg>
